# xmcd
#
# Track frame offsets:
#	150
#	15653
#	32008
#	61183
#	85862
#	96958
#	111465
#	127356
#	144372
#	155400
#	176662
#	189028
#	207928
#	229976
#	247338
#	289296
#	330624
#
# Disc length: 4694 seconds
#
# Revision: 1
# Processed by: cddbd v1.5.2PL0 Copyright (c) Steve Scherf et al.
# Submitted via: audiograbber 1.80.04
#
DISCID=f9125411
DTITLE=Dutch Tilders - Going on a Journey
DYEAR=1900
DGENRE=
TTITLE0=Dutchman Blues
TTITLE1=Going on a Journey
TTITLE2=Next in Line
TTITLE3=Make up your Bed
TTITLE4=Don't you tell on Me
TTITLE5=Little Girl Blues
TTITLE6=Imagination Blues
TTITLE7=Bad Books
TTITLE8=When I get back on my feet again
TTITLE9=I'm a Bluesman
TTITLE10=Smokin Woman
TTITLE11=Going back to the City
TTITLE12=Paraplu
TTITLE13=The Blues has been my Life
TTITLE14=Cryin' wont make me stay
TTITLE15=It's been a good time here
TTITLE16=Data Track
EXTD=
EXTT0=
EXTT1=
EXTT2=
EXTT3=
EXTT4=
EXTT5=
EXTT6=
EXTT7=
EXTT8=
EXTT9=
EXTT10=
EXTT11=
EXTT12=
EXTT13=
EXTT14=
EXTT15=
EXTT16=
PLAYORDER=
